<?xml version="1.0" encoding="UTF-8"?>
<svg version="1.1" xmlns="http://www.w3.org/2000/svg" width="80" height="81">
<path d="M0 0 C4.15911447 1.71789511 6.49448079 4.28811968 9 8 C9 8.99 9 9.98 9 11 C9.70125 11.061875 10.4025 11.12375 11.125 11.1875 C15.02041945 12.28837941 17.1229071 14.1868425 20 17 C22.57372434 22.24086092 22.33140268 27.15126996 22.3125 32.875 C22.32861328 33.84308594 22.34472656 34.81117187 22.36132812 35.80859375 C22.36747913 44.8505674 20.11992847 50.48848712 13.96484375 57.203125 C8.05739806 62.60556042 1.26681906 64.08324083 -6.5625 64.17578125 C-8.12871094 64.21155273 -8.12871094 64.21155273 -9.7265625 64.24804688 C-11.90865496 64.2910117 -14.0910095 64.3222644 -16.2734375 64.34179688 C-22.42954325 64.47600302 -22.42954325 64.47600302 -28.07421875 66.68359375 C-30.22152106 69.26645434 -31.5214207 71.65140968 -32.8125 74.75 C-33.23144531 75.73484375 -33.65039062 76.7196875 -34.08203125 77.734375 C-34.38496094 78.48203125 -34.68789063 79.2296875 -35 80 C-36.32 79.67 -37.64 79.34 -39 79 C-40.10683101 75.43354453 -40.13339621 72.0945207 -40.125 68.375 C-40.12886719 66.65410156 -40.12886719 66.65410156 -40.1328125 64.8984375 C-40 62 -40 62 -39 60 C-39.99 60.3403125 -39.99 60.3403125 -41 60.6875 C-45.20654913 61.1256822 -48.31884919 60.02540306 -52 58 C-55.93295767 53.86535219 -57.14980502 51.24909072 -57.1875 45.625 C-57.20167969 44.66851562 -57.21585938 43.71203125 -57.23046875 42.7265625 C-56.99419087 39.93127504 -56.2957668 38.43727565 -55 36 C-55.020625 34.9275 -55.04125 33.855 -55.0625 32.75 C-54.96042267 26.62536 -53.45601576 22.59145908 -49.3125 18.0625 C-45.2581224 15.53807621 -42.71755739 15.24401159 -38 15 C-37.814375 14.29875 -37.62875 13.5975 -37.4375 12.875 C-35.07745052 8.15490104 -31.17044753 5.29053637 -26.6875 2.625 C-23.21034562 1.81635945 -19.95686628 1.94973849 -16.40234375 2.125 C-10.58365222 1.82223881 -6.36057753 -0.66191376 0 0 Z M-13 7 C-15.32849047 10.21553446 -15.54457007 13.11021377 -15 17 C-13.49466683 19.16621115 -11.75790618 21.02235555 -10 23 C-10 23.99 -10 24.98 -10 26 C-13.13735845 25.06727181 -14.71557415 24.36569038 -16.75 21.75 C-19.09619428 16.58837258 -19.17947199 12.50420263 -18 7 C-23.7200759 6.54239393 -26.55296727 7.36151868 -31 11 C-35.06470854 15.625358 -35.31298367 20.0171968 -35 26 C-34.58268982 28.35529281 -34.58268982 28.35529281 -34 30 C-35.32 30 -36.64 30 -38 30 C-38.33 26.7 -38.66 23.4 -39 20 C-42.35122256 20.3046566 -44.53421025 20.67268829 -47.3125 22.625 C-49.4972221 25.69979407 -49.71421491 28.28479387 -50 32 C-46.04 31.67 -42.08 31.34 -38 31 C-38.33 32.32 -38.66 33.64 -39 35 C-39.88751953 35.00386719 -39.88751953 35.00386719 -40.79296875 35.0078125 C-45.00263431 35.21383202 -48.10646196 35.41265809 -51.0625 38.625 C-53.3205745 42.5584201 -53.64921562 44.53664261 -53 49 C-51.67918573 52.12824432 -50.68454014 53.56971762 -47.8125 55.375 C-44.01978768 56.21782496 -40.68230733 56.3878849 -37 55 C-35.07508198 52.23353404 -35.07508198 52.23353404 -34 49 C-33.1646875 48.0409375 -33.1646875 48.0409375 -32.3125 47.0625 C-30.35261403 43.98267919 -30.68631621 41.57599516 -31 38 C-31.8974827 35.16621868 -31.8974827 35.16621868 -33 33 C-31.109375 33.21484375 -31.109375 33.21484375 -29 34 C-27.953125 36.06640625 -27.953125 36.06640625 -27.25 38.5625 C-27.00765625 39.38878906 -26.7653125 40.21507812 -26.515625 41.06640625 C-26.34546875 41.70449219 -26.1753125 42.34257813 -26 43 C-24.83984375 42.89171875 -24.83984375 42.89171875 -23.65625 42.78125 C-14.13912498 41.93318935 -14.13912498 41.93318935 -10 42.1875 C-4.40739536 42.31783613 0.837895 39.92718587 6 38 C6.495 39.98 6.495 39.98 7 42 C11.00186503 38.73922109 12.78882087 34.71280293 14.94921875 30.14453125 C16 28 16 28 17 27 C17.54182532 23.0266143 17.34098336 21.46497731 14.9375 18.1875 C11.42467309 15.57156507 9.36418555 15 5 15 C1.83446931 16.29498983 0.30623151 17.63252219 -1.875 20.25 C-3.34333409 23.83926112 -2.80547689 26.26551623 -2 30 C-3.65 30 -5.3 30 -7 30 C-6.91231752 28.4156683 -6.80412671 26.83246433 -6.6875 25.25 C-6.60048828 23.92742188 -6.60048828 23.92742188 -6.51171875 22.578125 C-5.93309954 19.66294426 -4.84740512 18.27830122 -3 16 C-3 15.34 -3 14.68 -3 14 C-2.236875 13.71125 -1.47375 13.4225 -0.6875 13.125 C2.15029308 12.03730987 2.15029308 12.03730987 5 10 C3.36175905 7.22211317 2.06132301 5.33463356 -1.09375 4.33984375 C-5.91108557 3.64133009 -9.17452382 3.6382179 -13 7 Z M17 33 C16.67128906 33.79664063 16.34257813 34.59328125 16.00390625 35.4140625 C12.56870555 43.06646081 9.44715232 47.16154036 2 51 C0.5459375 51.8971875 0.5459375 51.8971875 -0.9375 52.8125 C-5.21911279 54.4727172 -9.44148677 54.73874134 -14 55 C-14.33 54.01 -14.66 53.02 -15 52 C-14.26394531 51.89042969 -13.52789062 51.78085937 -12.76953125 51.66796875 C-5.38461156 50.61101695 -5.38461156 50.61101695 1 47 C1.33 46.01 1.66 45.02 2 44 C0.1746875 44.495 0.1746875 44.495 -1.6875 45 C-5.7161231 45.91992181 -9.37392947 46.04901542 -13.5 45.9375 C-20.42736987 45.84027376 -26.20816341 46.42292007 -31.4375 51.25 C-34.35408098 56.38318253 -35.2861463 61.13400085 -35 67 C-34.113125 66.21625 -33.22625 65.4325 -32.3125 64.625 C-28.06014648 60.86710619 -23.90513444 59.76229051 -18.2890625 59.69140625 C-16.66871094 59.65370117 -16.66871094 59.65370117 -15.015625 59.61523438 C-12.76307651 59.5802005 -10.51046631 59.54892389 -8.2578125 59.52148438 C1.13843825 59.29217111 7.05731144 57.78490019 14 51 C17.68697005 44.77029198 18.11788517 40.07310992 18 33 C17.67 33 17.34 33 17 33 Z " fill="#4679C2" transform="translate(58,1)"/>
<path d="M0 0 C2.94969388 4.42454082 2.32939931 8.54501241 2.3125 13.75 C2.32861328 14.72710937 2.34472656 15.70421875 2.36132812 16.7109375 C2.36752536 25.90762946 0.07671148 31.48436737 -6.1484375 38.33203125 C-8.55658415 40.50139543 -10.83772567 41.38297086 -14 42 C-14 41.34 -14 40.68 -14 40 C-15.3303125 40.495 -15.3303125 40.495 -16.6875 41 C-22.31309323 42.65048396 -28.19845814 42.15703422 -34 42 C-34 41.34 -34 40.68 -34 40 C-32.49759766 39.94392578 -32.49759766 39.94392578 -30.96484375 39.88671875 C-21.57450985 39.45623999 -14.09111618 38.89414073 -7 32 C-3.86920787 27.1919978 -3.36031222 22.59105176 -3 17 C-3.32871094 17.65226562 -3.65742187 18.30453125 -3.99609375 18.9765625 C-7.65538069 25.70013038 -11.32197306 29.33981101 -18 33 C-18.969375 33.598125 -19.93875 34.19625 -20.9375 34.8125 C-25.21911279 36.4727172 -29.44148677 36.73874134 -34 37 C-34.33 35.68 -34.66 34.36 -35 33 C-34.02417969 32.75765625 -33.04835937 32.5153125 -32.04296875 32.265625 C-30.77066406 31.93046875 -29.49835937 31.5953125 -28.1875 31.25 C-26.29064453 30.76273438 -26.29064453 30.76273438 -24.35546875 30.265625 C-20.90475444 28.96407502 -19.7799672 28.14968174 -18 25 C-18.66 24.67 -19.32 24.34 -20 24 C-19.01 24 -18.02 24 -17 24 C-16.67 25.32 -16.34 26.64 -16 28 C-15.67 25.36 -15.34 22.72 -15 20 C-15.99 20.66 -16.98 21.32 -18 22 C-20.1875 21.625 -20.1875 21.625 -22 21 C-18.91190305 19.23537317 -17.76687864 19 -14 19 C-13.34 19.99 -12.68 20.98 -12 22 C-10.86894494 19.96168152 -9.74541528 17.91918624 -8.625 15.875 C-7.68527344 14.16957031 -7.68527344 14.16957031 -6.7265625 12.4296875 C-5.16018768 9.31820088 -4.00183114 6.32931763 -3 3 C-2.34 4.32 -1.68 5.64 -1 7 C-0.67 4.69 -0.34 2.38 0 0 Z M-20 30 C-20.99 30.99 -21.98 31.98 -23 33 C-21.68 32.67 -20.36 32.34 -19 32 C-19.33 31.34 -19.66 30.68 -20 30 Z " fill="#4B7CC3" transform="translate(78,20)"/>
<path d="M0 0 C0.66 0 1.32 0 2 0 C1.979375 0.94875 1.95875 1.8975 1.9375 2.875 C1.77448174 5.90666283 1.77448174 5.90666283 3 8 C3.721875 7.38125 4.44375 6.7625 5.1875 6.125 C11.04234345 1.7013405 15.88264005 1.7512379 23 2 C23 2.66 23 3.32 23 4 C30.22124213 3.58169634 37.04567778 3.04538889 44 1 C43.67 2.32 43.34 3.64 43 5 C35.66274067 7.61298409 28.34565368 7.35348061 20.62890625 7.390625 C14.50696459 7.49570374 14.50696459 7.49570374 8.90234375 9.7109375 C6.86001521 12.16844166 5.75510524 14.24488896 4.6875 17.25 C4.36136719 18.14203125 4.03523438 19.0340625 3.69921875 19.953125 C3.46847656 20.62859375 3.23773437 21.3040625 3 22 C2.01 22 1.02 22 0 22 C-2.78944365 15.10843333 -1.96400136 8.26409105 -1 1 C-0.67 0.67 -0.34 0.34 0 0 Z " fill="#4477C1" transform="translate(21,58)"/>
<path d="M0 0 C2.375 0.1875 2.375 0.1875 5 1 C6.86007925 4.27728249 7 6.1659754 7 10 C8.0725 9.67 9.145 9.34 10.25 9 C14.899889 7.82103878 19.31844328 7.90773793 24.08984375 7.9921875 C28.90325761 8.00510942 33.41289803 7.52903399 38 6 C37.67 8.31 37.34 10.62 37 13 C37.66 13.33 38.32 13.66 39 14 C37.68 14.33 36.36 14.66 35 15 C35.33 13.35 35.66 11.7 36 10 C35.01 10 34.02 10 33 10 C33 10.66 33 11.32 33 12 C28.36047327 13.72633553 24.58699788 14.07129361 19.625 13.9375 C12.47577177 13.81395343 6.96050355 15.02633096 1 19 C1 18.34 1 17.68 1 17 C0.34 17 -0.32 17 -1 17 C-0.67 16.319375 -0.34 15.63875 0 14.9375 C1.71481897 9.90021927 1.23890079 5.11046575 0 0 Z M33 16 C33 16.99 33 17.98 33 19 C32.01 18.67 31.02 18.34 30 18 C30.99 17.34 31.98 16.68 33 16 Z " fill="#1E59B4" transform="translate(25,34)"/>
<path d="M0 0 C1.09651823 3.41139003 0.94215473 6.20655581 0.5625 9.75 C0.46066406 10.73484375 0.35882812 11.7196875 0.25390625 12.734375 C0.12822266 13.85585938 0.12822266 13.85585938 0 15 C1.32 14.67 2.64 14.34 4 14 C3.2575 15.0209375 3.2575 15.0209375 2.5 16.0625 C0.36162376 20.25015348 0.35257175 23.82228678 1.6875 28.3125 C3.57187063 30.73526224 5.02675297 31.22437034 8 32 C10.69205124 32.14983588 13.29925116 32.09155081 16 32 C16.12375 31.195625 16.2475 30.39125 16.375 29.5625 C16.58125 28.716875 16.7875 27.87125 17 27 C17.66 26.67 18.32 26.34 19 26 C19.66 26.33 20.32 26.66 21 27 C20.343621 31.48525648 19.29925791 35.66914029 18 40 C17 37 17 37 18 34 C17.01 34.495 17.01 34.495 16 35 C14.94368111 41.85229471 14.26650519 49.22361119 16 56 C16.66 56.33 17.32 56.66 18 57 C16.68 56.67 15.36 56.34 14 56 C12.89316899 52.43354453 12.86660379 49.0945207 12.875 45.375 C12.87113281 43.65410156 12.87113281 43.65410156 12.8671875 41.8984375 C13 39 13 39 14 37 C13.01 37.3403125 13.01 37.3403125 12 37.6875 C7.79345087 38.1256822 4.68115081 37.02540306 1 35 C-2.93295767 30.86535219 -4.14980502 28.24909072 -4.1875 22.625 C-4.20167969 21.66851562 -4.21585937 20.71203125 -4.23046875 19.7265625 C-3.99403874 16.9294753 -3.29636904 15.43901842 -2 13 C-2 11.88625 -2 10.7725 -2 9.625 C-2 5.9464243 -1.32729439 3.40119187 0 0 Z " fill="#5987C8" transform="translate(5,24)"/>
<path d="M0 0 C-1.65 0.66 -3.3 1.32 -5 2 C-3.35 2.33 -1.7 2.66 0 3 C0 5.31 0 7.62 0 10 C0.66 10 1.32 10 2 10 C2 7.36 2 4.72 2 2 C2.33 2 2.66 2 3 2 C3.33 5.96 3.66 9.92 4 14 C2.68 14 1.36 14 0 14 C-1.49821059 10.62902617 -2 8.79557881 -2 5 C-4.5592805 5.34584872 -6.52075586 5.68050391 -8.6875 7.125 C-10.60556094 9.86508705 -11.21025737 12.78028005 -12 16 C-11.34 15.67 -10.68 15.34 -10 15 C-8.29297265 14.93003986 -6.58331997 14.91559846 -4.875 14.9375 C-3.96492188 14.94652344 -3.05484375 14.95554687 -2.1171875 14.96484375 C-1.41851562 14.97644531 -0.71984375 14.98804688 0 15 C-0.33 16.65 -0.66 18.3 -1 20 C-1.59167969 20.06058594 -2.18335938 20.12117188 -2.79296875 20.18359375 C-3.97826172 20.30927734 -3.97826172 20.30927734 -5.1875 20.4375 C-5.96480469 20.51871094 -6.74210938 20.59992187 -7.54296875 20.68359375 C-10.06001996 21.00772912 -12.5177143 21.47532505 -15 22 C-15.40336134 9.60784314 -15.40336134 9.60784314 -13 4 C-8.88947916 -0.11052084 -5.6134734 -1.80433074 0 0 Z " fill="#3068BA" transform="translate(20,17)"/>
<path d="M0 0 C0.99 0 1.98 0 3 0 C3.47214555 10.64950511 2.14942364 17.30438399 -5.1484375 25.33203125 C-7.55658415 27.50139543 -9.83772567 28.38297086 -13 29 C-13 28.34 -13 27.68 -13 27 C-13.886875 27.33 -14.77375 27.66 -15.6875 28 C-21.31309323 29.65048396 -27.19845814 29.15703422 -33 29 C-33 28.34 -33 27.68 -33 27 C-31.99839844 26.96261719 -30.99679688 26.92523438 -29.96484375 26.88671875 C-20.57450985 26.45623999 -13.09111618 25.89414073 -6 19 C-2.25587734 13.38381602 -1.36184821 6.50982762 0 0 Z " fill="#3E72BF" transform="translate(77,33)"/>
<path d="M0 0 C2.0625 0.4375 2.0625 0.4375 4 1 C3.9175 2.2375 3.835 3.475 3.75 4.75 C3.7713654 7.76252076 3.9060929 8.84348817 5.5 11.5 C9.14008723 13.68405234 11.79654733 13.28023018 16 13 C16.33 14.32 16.66 15.64 17 17 C14.34799934 18.80336045 12.88532161 18.99787633 9.625 18.9375 C4.54188982 17.62290254 1.85289622 15.33626046 -1.4375 11.1875 C-2.3517753 7.63198493 -1.64900168 4.59900934 -1 1 C-0.67 0.67 -0.34 0.34 0 0 Z " fill="#4679C2" transform="translate(32,21)"/>
<path d="M0 0 C1.94335162 2.18501192 2.97012782 3.39658204 3.1171875 6.3671875 C3.03726563 7.19476563 2.95734375 8.02234375 2.875 8.875 C2.69551764 12.56017503 2.69551764 12.56017503 4.13671875 15.84375 C4.60722656 16.3490625 5.07773437 16.854375 5.5625 17.375 C6.7690625 18.674375 6.7690625 18.674375 8 20 C7.8125 22.375 7.8125 22.375 7 24 C3.49366243 23.02601734 2.08928855 22.10913045 -0.25 19.25 C-2.93160855 14.26986984 -3.44530718 10.46004934 -2 5 C-4.64 5 -7.28 5 -10 5 C-8.9375 3.5 -8.9375 3.5 -7 2 C-3.3125 1.8125 -3.3125 1.8125 0 2 C0 1.34 0 0.68 0 0 Z " fill="#5483C6" transform="translate(41,4)"/>
<path d="M0 0 C0.66 0 1.32 0 2 0 C1.67 2.31 1.34 4.62 1 7 C1.66 7.33 2.32 7.66 3 8 C1.68 8.33 0.36 8.66 -1 9 C-0.67 7.35 -0.34 5.7 0 4 C-0.99 4 -1.98 4 -3 4 C-3 4.66 -3 5.32 -3 6 C-9.10153317 8.30502364 -14.60098038 8.26350069 -21 7 C-21.99 6.34 -22.98 5.68 -24 5 C-22.36863915 3.36863915 -20.37184819 3.56290165 -18.125 3.28125 C-17.14015625 3.15363281 -16.1553125 3.02601562 -15.140625 2.89453125 C-12 2.5 -12 2.5 -8.859375 2.10546875 C-7.87453125 1.97785156 -6.8896875 1.85023437 -5.875 1.71875 C-4.96492188 1.60466797 -4.05484375 1.49058594 -3.1171875 1.37304688 C-1.02123007 1.21245603 -1.02123007 1.21245603 0 0 Z M-3 10 C-3 10.99 -3 11.98 -3 13 C-3.99 12.67 -4.98 12.34 -6 12 C-5.01 11.34 -4.02 10.68 -3 10 Z " fill="#225DB5" transform="translate(61,40)"/>
<path d="M0 0 C0.99 0.33 1.98 0.66 3 1 C2.343621 5.48525648 1.29925791 9.66914029 0 14 C-1 11 -1 11 0 8 C-0.99 8.33 -1.98 8.66 -3 9 C-5.3406065 8.72230092 -7.67624308 8.39460023 -10 8 C-10 7.67 -10 7.34 -10 7 C-7.36 6.67 -4.72 6.34 -2 6 C-1.855625 5.195625 -1.71125 4.39125 -1.5625 3.5625 C-1 1 -1 1 0 0 Z M-15 9 C-11.04 9 -7.08 9 -3 9 C-3.01160156 9.92941406 -3.02320313 10.85882813 -3.03515625 11.81640625 C-3.23513087 20.9727606 -3.23513087 20.9727606 -2 30 C-1.34 30.33 -0.68 30.66 0 31 C-1.32 30.67 -2.64 30.34 -4 30 C-5.10683101 26.43354453 -5.13339621 23.0945207 -5.125 19.375 C-5.12757812 18.22773437 -5.13015625 17.08046875 -5.1328125 15.8984375 C-5 13 -5 13 -4 11 C-5.051875 11.309375 -5.051875 11.309375 -6.125 11.625 C-9.60186072 12.07850357 -11.77398123 11.27540277 -15 10 C-15 9.67 -15 9.34 -15 9 Z " fill="#5484C7" transform="translate(23,50)"/>
<path d="M0 0 C1.9375 0.1875 1.9375 0.1875 4 1 C6.60103495 4.38134543 6.49622731 7.88840227 6 12 C4.12735857 15.4667081 2.03067979 17.67934407 -1.8125 18.875 C-2.534375 18.91625 -3.25625 18.9575 -4 19 C-4 17.68 -4 16.36 -4 15 C-3.34 14.566875 -2.68 14.13375 -2 13.6875 C0.40019531 12.06336182 0.40019531 12.06336182 0.3125 8.5625 C0.07584502 5.86463326 -0.30360289 3.58661784 -1 1 C-0.67 0.67 -0.34 0.34 0 0 Z " fill="#517FC5" transform="translate(61,20)"/>
<path d="M0 0 C-1.65 0.66 -3.3 1.32 -5 2 C-3.35 2.33 -1.7 2.66 0 3 C0 5.31 0 7.62 0 10 C0.66 10 1.32 10 2 10 C2 7.36 2 4.72 2 2 C2.33 2 2.66 2 3 2 C3.33 5.96 3.66 9.92 4 14 C2.68 14 1.36 14 0 14 C-1.49821059 10.62902617 -2 8.79557881 -2 5 C-5.82097239 5.53069061 -8.06171403 6.49701566 -11 9 C-11 8.01 -11 7.02 -11 6 C-11.99 5.67 -12.98 5.34 -14 5 C-6.1344086 -1.97177419 -6.1344086 -1.97177419 0 0 Z " fill="#3D71BE" transform="translate(20,17)"/>
<path d="M0 0 C-1.98 0.99 -1.98 0.99 -4 2 C-2.68 2.66 -1.36 3.32 0 4 C-1.175625 4.61875 -1.175625 4.61875 -2.375 5.25 C-5.17859466 7.1190631 -6.03159947 7.83068917 -7 11 C-7.0777346 13.33203812 -7.08967728 15.66839059 -7 18 C-7.99 18.33 -8.98 18.66 -10 19 C-10.66 18.67 -11.32 18.34 -12 18 C-12.35666988 12.98680673 -12.56305357 9.14696097 -10.3125 4.5625 C-4.7625 -1.5875 -4.7625 -1.5875 0 0 Z " fill="#5A87C8" transform="translate(63,13)"/>
<path d="M0 0 C1.50433594 0.01353516 1.50433594 0.01353516 3.0390625 0.02734375 C3.80992188 0.03894531 4.58078125 0.05054687 5.375 0.0625 C5.375 0.7225 5.375 1.3825 5.375 2.0625 C4.68792969 2.16046875 4.00085938 2.2584375 3.29296875 2.359375 C2.39191406 2.50890625 1.49085937 2.6584375 0.5625 2.8125 C-0.33082031 2.95171875 -1.22414063 3.0909375 -2.14453125 3.234375 C-5.13072658 4.231341 -6.00880344 5.4207435 -7.625 8.0625 C-8.615 6.7425 -9.605 5.4225 -10.625 4.0625 C-13.925 4.7225 -17.225 5.3825 -20.625 6.0625 C-20.295 5.0725 -19.965 4.0825 -19.625 3.0625 C-18.635 3.0625 -17.645 3.0625 -16.625 3.0625 C-16.625 2.4025 -16.625 1.7425 -16.625 1.0625 C-15.68527344 1.07990234 -15.68527344 1.07990234 -14.7265625 1.09765625 C-13.50066406 1.11119141 -13.50066406 1.11119141 -12.25 1.125 C-11.03183594 1.14240234 -11.03183594 1.14240234 -9.7890625 1.16015625 C-6.3731143 1.00600696 -3.62440864 -0.04214429 0 0 Z " fill="#1A53B1" transform="translate(51.625,1.9375)"/>
<path d="M0 0 C2.20914 3.31371 2.22481553 4.3446021 2.125 8.1875 C2.10695313 9.08855469 2.08890625 9.98960938 2.0703125 10.91796875 C2.03550781 11.94857422 2.03550781 11.94857422 2 13 C1.01 13 0.02 13 -1 13 C-1.33 13.99 -1.66 14.98 -2 16 C-2.66 16.33 -3.32 16.66 -4 17 C-4.33 16.01 -4.66 15.02 -5 14 C-5.66 14 -6.32 14 -7 14 C-6.71125 13.29875 -6.4225 12.5975 -6.125 11.875 C-4.97866412 8.94547497 -3.97374346 5.99078347 -3 3 C-2.34 4.32 -1.68 5.64 -1 7 C-0.67 4.69 -0.34 2.38 0 0 Z " fill="#4C7EC4" transform="translate(78,20)"/>
<path d="M0 0 C10.65085158 -0.55839416 10.65085158 -0.55839416 15 3 C16.8125 4.6875 16.8125 4.6875 18 6 C17.67 6.66 17.34 7.32 17 8 C16.67 7.67 16.34 7.34 16 7 C15.01 8.485 15.01 8.485 14 10 C13.690625 9.360625 13.38125 8.72125 13.0625 8.0625 C10.28019511 5.28019511 8.06696807 5.32241846 4.25390625 4.98046875 C1.99861267 5.00001202 0.15396398 5.35724537 -2 6 C-1 4.5 -1 4.5 1 3 C3.71846235 2.72654521 6.25677199 2.86508715 9 3 C9 2.34 9 1.68 9 1 C6.03 1 3.06 1 0 1 C0 0.67 0 0.34 0 0 Z " fill="#4779C2" transform="translate(48,1)"/>
<path d="M0 0 C0 0.99 0 1.98 0 3 C-4.04063703 3.74016884 -7.95082109 4.1683286 -12.0546875 4.31640625 C-13.71757813 4.37924805 -13.71757813 4.37924805 -15.4140625 4.44335938 C-16.55617188 4.48267578 -17.69828125 4.52199219 -18.875 4.5625 C-20.0403125 4.60568359 -21.205625 4.64886719 -22.40625 4.69335938 C-25.27072625 4.79901629 -28.13528321 4.90111799 -31 5 C-31 4.34 -31 3.68 -31 3 C-27.91111478 0.94074319 -27.29064073 0.7609626 -23.8125 0.875 C-21.9253125 0.936875 -21.9253125 0.936875 -20 1 C-20 1.66 -20 2.32 -20 3 C-9.82839073 2.44589633 -9.82839073 2.44589633 0 0 Z " fill="#0141A9" transform="translate(64,59)"/>
<path d="M0 0 C1.32 0.33 2.64 0.66 4 1 C4 4.3 4 7.6 4 11 C3.01 11.495 3.01 11.495 2 12 C1.67 12.66 1.34 13.32 1 14 C-1.50678944 10.79130951 -2.22821255 8.71845045 -1.75 4.75 C-1 1 -1 1 0 0 Z " fill="#4A79C2" transform="translate(32,21)"/>
<path d="M0 0 C0.66 0 1.32 0 2 0 C2.125 6.75 2.125 6.75 1 9 C0.77532169 10.53668865 0.59203195 12.07968054 0.4375 13.625 C0.35371094 14.44226563 0.26992188 15.25953125 0.18359375 16.1015625 C0.12300781 16.72804688 0.06242187 17.35453125 0 18 C0.66 18 1.32 18 2 18 C2 19.32 2 20.64 2 22 C1.34 22 0.68 22 0 22 C-2.78944365 15.10843333 -1.96400136 8.26409105 -1 1 C-0.67 0.67 -0.34 0.34 0 0 Z " fill="#0846AB" transform="translate(21,58)"/>
<path d="M0 0 C0.66 0.99 1.32 1.98 2 3 C2.66 3.66 3.32 4.32 4 5 C5 7 5 7 4.44140625 8.9453125 C4.00634766 10.02425781 4.00634766 10.02425781 3.5625 11.125 C3.27503906 11.84945312 2.98757812 12.57390625 2.69140625 13.3203125 C2.46324219 13.87460938 2.23507813 14.42890625 2 15 C1.67 13.68 1.34 12.36 1 11 C0.34 11 -0.32 11 -1 11 C-1.0270043 9.54176788 -1.04639787 8.08339325 -1.0625 6.625 C-1.07410156 5.81289062 -1.08570312 5.00078125 -1.09765625 4.1640625 C-1 2 -1 2 0 0 Z " fill="#3D74BF" transform="translate(22,65)"/>
<path d="M0 0 C0.32613618 4.67461851 -0.29417212 7.16674383 -3 11 C-3.99 10.67 -4.98 10.34 -6 10 C-5.51421457 6.87709365 -5.0013988 4.00419641 -4 1 C-1 0 -1 0 0 0 Z " fill="#3469BB" transform="translate(74,33)"/>
<path d="M0 0 C0.99 0.66 1.98 1.32 3 2 C3 3.32 3 4.64 3 6 C4.32 6.33 5.64 6.66 7 7 C6.67 7.66 6.34 8.32 6 9 C2.37 9 -1.26 9 -5 9 C-4.01 8.01 -3.02 7.02 -2 6 C-1.34 6 -0.68 6 0 6 C0 4.02 0 2.04 0 0 Z " fill="#0647AB" transform="translate(63,7)"/>
<path d="M0 0 C0 0.66 0 1.32 0 2 C-2.10277123 2.22197585 -4.20732302 2.42713637 -6.3125 2.625 C-7.48425781 2.74101563 -8.65601563 2.85703125 -9.86328125 2.9765625 C-13 3 -13 3 -16 1 C-12.62416879 -2.37583121 -4.1066008 -0.94767711 0 0 Z " fill="#0040A8" transform="translate(53,44)"/>
<path d="M0 0 C0.33 0 0.66 0 1 0 C1.33 3.96 1.66 7.92 2 12 C0.68 12 -0.64 12 -2 12 C-3.80230168 8.17010894 -4.19622241 5.21878192 -4 1 C-3.34 1 -2.68 1 -2 1 C-2 3.31 -2 5.62 -2 8 C-1.34 8 -0.68 8 0 8 C0 5.36 0 2.72 0 0 Z " fill="#5382C6" transform="translate(22,19)"/>
<path d="M0 0 C0.66 0.33 1.32 0.66 2 1 C1.67 4.63 1.34 8.26 1 12 C0.34 12 -0.32 12 -1 12 C-1.33 9.69 -1.66 7.38 -2 5 C-3.65 5 -5.3 5 -7 5 C-5.60683123 2.21366246 -3.84019484 2.06507306 -1 1 C-0.67 0.67 -0.34 0.34 0 0 Z " fill="#0443A9" transform="translate(21,15)"/>
<path d="M0 0 C2.475 0.495 2.475 0.495 5 1 C5.99 4.3 6.98 7.6 8 11 C7.01 11 6.02 11 5 11 C4.34 8.36 3.68 5.72 3 3 C2.34 3.66 1.68 4.32 1 5 C0.67 3.35 0.34 1.7 0 0 Z " fill="#618DCB" transform="translate(25,34)"/>
<path d="M0 0 C0 0.66 0 1.32 0 2 C-0.66 2 -1.32 2 -2 2 C-2 2.66 -2 3.32 -2 4 C-4.64 4.33 -7.28 4.66 -10 5 C-10 4.01 -10 3.02 -10 2 C-8.7090864 1.66376204 -7.41723903 1.33110751 -6.125 1 C-5.40570313 0.814375 -4.68640625 0.62875 -3.9453125 0.4375 C-2 0 -2 0 0 0 Z " fill="#1952B0" transform="translate(54,52)"/>
<path d="M0 0 C0 0.33 0 0.66 0 1 C-4.455 1.495 -4.455 1.495 -9 2 C-8.34 2.66 -7.68 3.32 -7 4 C-8.98 4.33 -10.96 4.66 -13 5 C-12.34 4.67 -11.68 4.34 -11 4 C-11.33 2.68 -11.66 1.36 -12 0 C-7.74433453 -1.16063604 -4.3164922 -0.76173392 0 0 Z " fill="#5485C7" transform="translate(47,43)"/>
<path d="M0 0 C2.38564077 0.57584432 4.66682784 1.22227595 7 2 C6.67 3.32 6.34 4.64 6 6 C3.5625 5.25 3.5625 5.25 1 4 C0.1875 1.875 0.1875 1.875 0 0 Z " fill="#2F66B9" transform="translate(42,22)"/>
<path d="M0 0 C4.62 0.66 9.24 1.32 14 2 C10.54785147 4.30143236 9.76520676 4.13833854 5.8125 3.625 C4.91144531 3.51414063 4.01039062 3.40328125 3.08203125 3.2890625 C2.39496094 3.19367187 1.70789063 3.09828125 1 3 C0.67 2.01 0.34 1.02 0 0 Z " fill="#0444AA" transform="translate(6,56)"/>
<path d="M0 0 C3.63 0.33 7.26 0.66 11 1 C10.67 1.66 10.34 2.32 10 3 C9.01 3 8.02 3 7 3 C7 3.66 7 4.32 7 5 C6.34 5 5.68 5 5 5 C5 4.34 5 3.68 5 3 C3.35 2.67 1.7 2.34 0 2 C0 1.34 0 0.68 0 0 Z " fill="#0345AA" transform="translate(37,35)"/>
<path d="M0 0 C0.99 0 1.98 0 3 0 C2.34 3.63 1.68 7.26 1 11 C0.34 11 -0.32 11 -1 11 C-0.67 7.37 -0.34 3.74 0 0 Z " fill="#0440A8" transform="translate(6,23)"/>
<path d="M0 0 C1.485 0.99 1.485 0.99 3 2 C3.29296875 4.6015625 3.29296875 4.6015625 3.1875 7.625 C3.16042969 8.62789062 3.13335937 9.63078125 3.10546875 10.6640625 C3.07066406 11.43492188 3.03585938 12.20578125 3 13 C0.90216749 9.06103179 -0.07113523 5.35851932 -1 1 C-0.67 0.67 -0.34 0.34 0 0 Z " fill="#0341A9" transform="translate(75,18)"/>
<path d="M0 0 C0.33 0.66 0.66 1.32 1 2 C1.66 2 2.32 2 3 2 C2.34 4.31 1.68 6.62 1 9 C-0.70840281 7.36587557 -1.93453047 6.13093906 -3 4 C-2.01 2.68 -1.02 1.36 0 0 Z " fill="#4778C2" transform="translate(23,10)"/>
<path d="M0 0 C-0.6875 1.9375 -0.6875 1.9375 -2 4 C-4.625 4.75 -4.625 4.75 -7 5 C-7 3.68 -7 2.36 -7 1 C-2.25 0 -2.25 0 0 0 Z " fill="#396DBC" transform="translate(64,34)"/>
<path d="M0 0 C0.66 0 1.32 0 2 0 C1.8864371 1.64666203 1.75882619 3.29236082 1.625 4.9375 C1.52058594 6.31228516 1.52058594 6.31228516 1.4140625 7.71484375 C1.27742187 8.46894531 1.14078125 9.22304688 1 10 C0.01 10.495 0.01 10.495 -1 11 C-1.02688151 9.35425434 -1.04634123 7.70838587 -1.0625 6.0625 C-1.07410156 5.14597656 -1.08570312 4.22945312 -1.09765625 3.28515625 C-1 1 -1 1 0 0 Z " fill="#0440A8" transform="translate(3,40)"/>
<path d="M0 0 C0.598125 0.45375 1.19625 0.9075 1.8125 1.375 C3.50590652 2.63295913 5.24477086 3.82984724 7 5 C5.02 5 3.04 5 1 5 C0.67 5.66 0.34 6.32 0 7 C-0.99 5.68 -1.98 4.36 -3 3 C-2.01 2.67 -1.02 2.34 0 2 C0 1.34 0 0.68 0 0 Z " fill="#5984C7" transform="translate(6,52)"/>
<path d="M0 0 C0.33 1.32 0.66 2.64 1 4 C-2.08888522 6.05925681 -2.70935927 6.2390374 -6.1875 6.125 C-8.0746875 6.063125 -8.0746875 6.063125 -10 6 C-10 5.67 -10 5.34 -10 5 C-7.36 4.67 -4.72 4.34 -2 4 C-2 3.01 -2 2.02 -2 1 C-1.34 0.67 -0.68 0.34 0 0 Z " fill="#3F71BE" transform="translate(23,52)"/>
<path d="M0 0 C0.66 0 1.32 0 2 0 C2 2.97 2 5.94 2 9 C1.34 9 0.68 9 0 9 C-1.125 3.375 -1.125 3.375 0 0 Z " fill="#003AA5" transform="translate(77,33)"/>
<path d="M0 0 C0.66 0.33 1.32 0.66 2 1 C1.67 3.97 1.34 6.94 1 10 C0.34 10 -0.32 10 -1 10 C-1.125 2.25 -1.125 2.25 0 0 Z " fill="#013EA7" transform="translate(53,20)"/>
<path d="M0 0 C2 1 2 1 4 4 C2.68 4.99 1.36 5.98 0 7 C0 6.01 0 5.02 0 4 C-0.99 3.67 -1.98 3.34 -3 3 C-2.01 2.01 -1.02 1.02 0 0 Z " fill="#537FC5" transform="translate(9,19)"/>
<path d="M0 0 C0.99 0.495 0.99 0.495 2 1 C2.4140625 3.06640625 2.4140625 3.06640625 2.625 5.5625 C2.69976562 6.38878906 2.77453125 7.21507812 2.8515625 8.06640625 C2.92503906 9.02353516 2.92503906 9.02353516 3 10 C2.01 9.67 1.02 9.34 0 9 C0 6.03 0 3.06 0 0 Z " fill="#0241A9" transform="translate(40,11)"/>
<path d="M0 0 C0.99 0 1.98 0 3 0 C2.67 1.65 2.34 3.3 2 5 C1.01 4.67 0.02 4.34 -1 4 C-0.67 2.68 -0.34 1.36 0 0 Z " fill="#2A5FB6" transform="translate(25,8)"/>
</svg>
